<svg width="26" height="32" viewBox="0 0 26 32" fill="none" xmlns="http://www.w3.org/2000/svg">
<g filter="url(#filter0_d_12253_399)">
<path d="M20.4228 3.33058H5.5356C4.95074 3.33058 4.47223 3.76157 4.47223 4.29425V22.9575C4.47223 23.4902 4.81782 23.6258 5.24849 23.2529L12.5485 16.9479C12.7186 16.8026 13.0004 16.8026 13.1706 16.9431L20.7045 23.2675C21.1352 23.6307 21.4861 23.4902 21.4861 22.9575V4.29425C21.4861 3.76157 21.0129 3.33058 20.4228 3.33058ZM19.8911 20.6137L14.2499 15.8777C13.8565 15.5484 13.362 15.3838 12.8622 15.3838C12.3518 15.3838 11.8467 15.5532 11.4532 15.8922L6.06728 20.5459V4.78335H19.8911V20.6137Z" fill="#333333"/>
<path fill-rule="evenodd" clip-rule="evenodd" d="M4.125 4.28409C4.125 3.52999 4.78962 2.98335 5.52178 2.98335H20.4366C21.1752 2.98335 21.8333 3.53102 21.8333 4.28409V22.9674C21.8333 23.2858 21.7261 23.6394 21.3931 23.7718C21.0793 23.8965 20.753 23.7433 20.5072 23.5363C20.5071 23.5362 20.5073 23.5364 20.5072 23.5363L12.9618 17.2072C12.9615 17.207 12.9613 17.2068 12.9611 17.2066C12.9126 17.1674 12.8089 17.1682 12.7616 17.2081C12.7614 17.2082 12.7613 17.2083 12.7611 17.2085L5.44928 23.5188C5.20693 23.7285 4.88204 23.8908 4.56613 23.7695C4.22892 23.6401 4.125 23.2819 4.125 22.9674V4.28409ZM5.52178 3.65542C5.08206 3.65542 4.78788 3.97168 4.78788 4.28409V22.9674C4.78788 23.0554 4.80082 23.1081 4.81138 23.135C4.81555 23.1339 4.82038 23.1325 4.82591 23.1306C4.86751 23.1166 4.93337 23.0816 5.019 23.0075L12.3329 16.6955L12.3343 16.6942C12.6278 16.4438 13.0876 16.4446 13.3801 16.6858L13.3822 16.6876L20.9307 23.0193C21.0154 23.0906 21.0806 23.1237 21.122 23.1368C21.1308 23.1396 21.1379 23.1413 21.1434 23.1424C21.1548 23.1175 21.1705 23.0633 21.1705 22.9674V4.28409C21.1705 3.97066 20.8805 3.65542 20.4366 3.65542H5.52178ZM21.1593 23.1438C21.1593 23.1438 21.159 23.1438 21.1584 23.1439L21.1593 23.1438ZM4.79008 23.1382C4.79009 23.1382 4.79039 23.1382 4.79098 23.1383L4.79008 23.1382ZM5.72301 4.43769H20.2353V21.3353L14.0413 16.1392C14.0413 16.1391 14.0414 16.1393 14.0413 16.1392C13.7111 15.8631 13.2917 15.7215 12.862 15.7215C12.4214 15.7215 11.9935 15.8678 11.6649 16.1507L5.72301 21.2808V4.43769ZM6.38589 5.10975V19.8257L11.2359 15.6384C11.6956 15.2426 12.2798 15.0495 12.862 15.0495C13.4335 15.0495 14.0051 15.2377 14.4632 15.6208L14.4635 15.6211L19.5724 19.9069V5.10975H6.38589Z" fill="#333333"/>
</g>
<defs>
<filter id="filter0_d_12253_399" x="-3" y="0.900024" width="32" height="32" filterUnits="userSpaceOnUse" color-interpolation-filters="sRGB">
<feFlood flood-opacity="0" result="BackgroundImageFix"/>
<feColorMatrix in="SourceAlpha" type="matrix" values="0 0 0 0 0 0 0 0 0 0 0 0 0 0 0 0 0 0 127 0" result="hardAlpha"/>
<feOffset dy="4"/>
<feGaussianBlur stdDeviation="2"/>
<feComposite in2="hardAlpha" operator="out"/>
<feColorMatrix type="matrix" values="0 0 0 0 0 0 0 0 0 0 0 0 0 0 0 0 0 0 0.25 0"/>
<feBlend mode="normal" in2="BackgroundImageFix" result="effect1_dropShadow_12253_399"/>
<feBlend mode="normal" in="SourceGraphic" in2="effect1_dropShadow_12253_399" result="shape"/>
</filter>
</defs>
</svg>
