<svg width="96" height="28" viewBox="0 0 96 28" fill="none" xmlns="http://www.w3.org/2000/svg">
<path d="M5.77125 0.892933C3.82602 1.70718 1.68756 4.00753 1.01216 6.89497C0.156825 10.5535 3.71628 12.1005 4.00823 11.5933C4.35185 10.9972 3.37041 10.7957 3.16839 8.89747C2.9073 6.44579 4.04708 3.70631 5.48154 2.5043C5.74818 2.28098 5.73549 2.59181 5.73549 3.16674C5.73549 4.19485 5.67869 13.4243 5.67869 15.3505C5.67869 17.9568 5.57103 18.7799 5.37769 19.5932C5.18179 20.4173 4.86685 20.9742 5.10549 21.1887C5.37212 21.4287 6.51053 20.8579 7.16957 19.9381C7.95985 18.8349 8.23649 17.5101 8.28615 16.0713C8.34614 14.337 8.34359 11.5848 8.34614 10.0151C8.34854 8.57534 8.37039 4.35952 8.32091 1.82512C8.30877 1.20348 6.58476 0.551292 5.77116 0.892176L5.77125 0.892933ZM74.8464 13.0906C74.7837 14.4456 74.4838 15.5047 74.1115 16.2517C73.3909 17.698 71.8955 18.147 71.2606 16.068C70.9146 14.9347 70.8984 13.0421 71.1471 11.4606C71.4004 9.84954 72.1074 8.63282 73.2783 8.74255C74.4331 8.85102 74.9736 10.3391 74.8464 13.0905V13.0906ZM55.3782 21.4973C55.3625 23.7487 55.0082 25.7227 54.2483 26.296C53.1706 27.109 51.7221 26.4992 52.022 24.8563C52.2874 23.4025 53.5425 21.9178 55.3812 20.1038C55.3812 20.1038 55.3851 20.5175 55.3782 21.4973H55.3782ZM55.0838 13.0775C55.0179 14.3116 54.698 15.5514 54.3489 16.2519C53.6284 17.6981 52.1222 18.1503 51.498 16.0682C51.0712 14.6456 51.1734 12.8045 51.3846 11.6444C51.6586 10.1392 52.3228 8.74288 53.5157 8.74288C54.6754 8.74288 55.2473 10.0153 55.0838 13.0776V13.0775ZM43.8058 13.0586C43.7351 14.3657 43.4802 15.4583 43.071 16.2519C42.3306 17.6882 40.8659 18.1437 40.22 16.0682C39.7543 14.5716 39.9128 12.531 40.1066 11.4286C40.394 9.79275 41.1139 8.63298 42.2377 8.74288C43.392 8.85565 43.9532 10.3392 43.8058 13.0587V13.0586ZM95.4903 14.5853C95.2081 14.5853 95.0793 14.8762 94.9728 15.3658C94.6033 17.0682 94.2149 17.4526 93.714 17.4526C93.1544 17.4526 92.6516 16.6096 92.5224 14.9222C92.4208 13.5953 92.4371 11.1525 92.567 8.72257C92.5936 8.22331 92.4558 7.72933 91.1167 7.24286C90.5405 7.03362 89.7029 6.72552 89.2859 7.73221C88.1076 10.5763 87.6465 12.8343 87.5381 13.7515C87.5324 13.799 87.4742 13.8087 87.464 13.6978C87.3949 12.9631 87.2404 11.6281 87.2212 8.8232C87.2175 8.27594 87.1015 7.81011 86.4975 7.42874C86.1055 7.18128 84.9154 6.7436 84.4868 7.26429C84.1155 7.69014 83.6855 8.83615 83.2387 10.1946C82.8756 11.2987 82.6227 12.0456 82.6227 12.0456C82.6227 12.0456 82.6275 9.06651 82.6318 7.93649C82.6337 7.51017 82.3413 7.36812 82.2532 7.34237C81.8563 7.22718 81.0743 7.03475 80.7424 7.03475C80.3329 7.03475 80.2326 7.26366 80.2326 7.5972C80.2326 7.64087 80.168 11.5195 80.168 14.2316C80.168 14.3494 80.168 14.4779 80.1692 14.6145C79.9427 15.861 79.2081 17.5531 78.4092 17.5531C77.6093 17.5531 77.232 16.8457 77.232 13.6124C77.232 11.7262 77.2886 10.9061 77.3164 9.54185C77.3326 8.75608 77.3638 8.15267 77.362 8.01573C77.3562 7.59582 76.63 7.38418 76.2922 7.30596C75.9527 7.22708 75.6577 7.19653 75.4274 7.20965C75.1014 7.22804 74.8707 7.44193 74.8707 7.73611C74.8707 7.89384 74.8725 8.19378 74.8725 8.19378C74.4526 7.53391 73.7772 7.07464 73.3278 6.94154C72.1175 6.5821 70.8545 6.90059 69.9019 8.23362C69.1448 9.29278 68.6884 10.4924 68.5087 12.2159C68.3774 13.4759 68.4203 14.7536 68.6537 15.8342C68.3717 17.0535 67.8481 17.5531 67.2748 17.5531C66.4424 17.5531 65.839 16.1946 65.9091 13.845C65.9553 12.2996 66.2645 11.2151 66.6026 9.64614C66.7467 8.97731 66.6296 8.62713 66.3359 8.29152C66.0665 7.98374 65.4925 7.82649 64.6674 8.0199C64.0797 8.15779 63.2394 8.30608 62.4706 8.41998C62.4706 8.41998 62.5169 8.23489 62.555 7.90856C62.755 6.19721 60.8953 6.33606 60.302 6.88267C59.9478 7.20901 59.7068 7.5939 59.6153 8.28593C59.4702 9.38412 60.3658 9.9021 60.3658 9.9021C60.072 11.2473 59.3516 13.0045 58.6079 14.275C58.2096 14.9557 57.9049 15.4601 57.5115 15.9963C57.5101 15.7966 57.509 15.597 57.5083 15.3983C57.4993 12.5702 57.5369 10.3444 57.5535 9.54211C57.5697 8.75635 57.6012 8.16894 57.5994 8.03201C57.595 7.72487 57.4156 7.60889 57.0426 7.46203C56.7127 7.33214 56.3227 7.24224 55.9182 7.21088C55.4075 7.17105 55.0999 7.44188 55.1079 7.76214C55.1095 7.82261 55.1095 8.1939 55.1095 8.1939C54.6895 7.53402 54.0142 7.07476 53.5648 6.94165C52.3545 6.58236 51.0915 6.90086 50.1389 8.23373C49.3819 9.29288 48.8862 10.7792 48.7457 12.2029C48.6149 13.5298 48.639 14.6574 48.8174 15.6073C48.625 16.5585 48.0716 17.5532 47.446 17.5532C46.6461 17.5532 46.191 16.8458 46.191 13.6125C46.191 11.7263 46.2477 10.9062 46.2755 9.54211C46.2916 8.75635 46.3228 8.15279 46.3211 8.01601C46.3152 7.5961 45.5891 7.38445 45.2512 7.30607C44.8977 7.22432 44.5925 7.19425 44.3581 7.21152C44.0489 7.23456 43.8315 7.51147 43.8315 7.71799V8.1939C43.4116 7.53402 42.7362 7.07476 42.2868 6.94165C41.0765 6.58236 39.8206 6.90599 38.8609 8.23373C38.2351 9.09948 37.7285 10.0593 37.4677 12.184C37.3924 12.798 37.3591 13.373 37.3634 13.9104C37.1139 15.4365 36.0117 17.1955 35.1101 17.1955C34.5825 17.1955 34.0801 16.1722 34.0801 13.9913C34.0801 11.0863 34.2599 6.95014 34.2903 6.5515C34.2903 6.5515 35.4294 6.53214 35.65 6.52957C36.2182 6.52333 36.7329 6.53677 37.4897 6.49806C37.8693 6.4787 38.235 5.1164 37.8432 4.9478C37.6656 4.8715 36.4107 4.80463 35.9132 4.79407C35.4949 4.78459 34.3303 4.69841 34.3303 4.69841C34.3303 4.69841 34.4347 1.95301 34.459 1.663C34.4797 1.42128 34.1669 1.29683 33.9876 1.22131C33.5515 1.03687 33.1614 0.948564 32.6989 0.853224C32.06 0.721416 31.7701 0.850345 31.7135 1.3896C31.6282 2.20801 31.5841 4.60514 31.5841 4.60514C31.1152 4.60514 29.5136 4.51349 29.0446 4.51349C28.6088 4.51349 28.1385 6.38753 28.7409 6.41056C29.4341 6.43744 30.642 6.46063 31.4428 6.48479C31.4428 6.48479 31.4072 10.6891 31.4072 11.9871C31.4072 12.1252 31.4084 12.2582 31.4086 12.3872C30.9679 14.6844 29.4155 15.9252 29.4155 15.9252C29.7489 14.4055 29.0679 13.2643 27.8413 12.2983C27.3894 11.9423 26.4972 11.2683 25.499 10.5298C25.499 10.5298 26.0771 9.95999 26.5898 8.81365C26.9531 8.00165 26.9688 7.07238 26.0771 6.86747C24.6038 6.52865 23.389 7.61068 23.0267 8.76582C22.7459 9.66068 22.8957 10.3247 23.4456 11.0145C23.4858 11.0649 23.5293 11.1164 23.5743 11.1682C23.2417 11.8093 22.7848 12.6723 22.3978 13.3416C21.3238 15.1998 20.5124 16.6696 19.8993 16.6696C19.4091 16.6696 19.4157 15.1773 19.4157 13.7802C19.4157 12.5758 19.5046 10.7649 19.5757 8.89011C19.5992 8.27007 19.2892 7.91685 18.7694 7.59692C18.4536 7.40256 17.7797 7.0204 17.3894 7.0204C16.8051 7.0204 15.1196 7.0999 13.5269 11.7069C13.3262 12.2875 12.9319 13.3456 12.9319 13.3456L12.9658 7.80552C12.9658 7.67563 12.8967 7.55005 12.7383 7.46414C12.4699 7.31842 11.7531 7.0204 11.1157 7.0204C10.812 7.0204 10.6604 7.16165 10.6604 7.44319L10.6049 16.1106C10.6049 16.7692 10.622 17.5375 10.6871 17.8735C10.752 18.2099 10.8571 18.4836 10.9873 18.6465C11.1172 18.809 11.2676 18.933 11.5155 18.9842C11.7462 19.0317 13.0095 19.1939 13.0752 18.7111C13.1538 18.1325 13.1569 17.5067 13.8202 15.1727C14.853 11.539 16.1995 9.7661 16.8324 9.13646C16.9431 9.02641 17.0695 9.01985 17.0634 9.19997C17.0364 9.99662 16.9414 11.9873 16.8774 13.6785C16.7059 18.2043 17.5293 19.0432 18.7058 19.0432C19.606 19.0432 20.8749 18.1488 22.2351 15.8848C23.0831 14.4739 23.9064 13.0904 24.498 12.0933C24.9102 12.475 25.3729 12.8857 25.8352 13.3245C26.9095 14.3442 27.2623 15.3131 27.0282 16.2322C26.8492 16.9349 26.1751 17.6591 24.9753 16.9552C24.6257 16.7499 24.4764 16.5912 24.1248 16.3597C23.9359 16.2354 23.6474 16.1982 23.4745 16.3285C23.0253 16.6671 22.7684 17.0979 22.6217 17.6313C22.479 18.1502 22.9988 18.4246 23.5375 18.6645C24.0014 18.871 24.9985 19.0582 25.6344 19.0795C28.112 19.1624 30.0968 17.8832 31.4784 14.5837C31.7257 17.4333 32.7783 19.0457 34.6071 19.0457C35.8297 19.0457 37.0556 17.4654 37.5916 15.9107C37.7455 16.5444 37.9733 17.0955 38.2675 17.5615C39.6767 19.7942 42.4104 19.3137 43.7836 17.4178C44.2081 16.8319 44.2728 16.6214 44.2728 16.6214C44.473 18.4116 45.9147 19.0371 46.7401 19.0371C47.6646 19.0371 48.6191 18.6001 49.2881 17.094C49.3665 17.2574 49.4521 17.4135 49.5455 17.5615C50.9547 19.7942 53.6884 19.3136 55.0616 17.4177C55.1263 17.3288 55.1825 17.2481 55.2316 17.1757L55.2719 18.3516C55.2719 18.3516 54.4885 19.0702 54.0077 19.5111C51.8913 21.4528 50.282 22.9259 50.1636 24.6414C50.0117 26.8289 51.7857 27.6418 53.1279 27.7484C54.5532 27.8615 55.7737 27.0741 56.524 25.9722C57.1839 25.0023 57.6158 22.9149 57.5841 20.8532C57.5715 20.0276 57.5507 18.9779 57.5344 17.8527C58.2782 16.9888 59.1163 15.897 59.888 14.619C60.729 13.2263 61.6302 11.356 62.0917 9.90043C62.0917 9.90043 62.8748 9.90715 63.7105 9.85244C63.9778 9.83501 64.0545 9.88955 64.0051 10.0855C63.9454 10.3223 62.9493 14.1644 63.8584 16.7239C64.4807 18.4761 65.8835 19.0398 66.7152 19.0398C67.6887 19.0398 68.6201 18.3046 69.1192 17.2128C69.1793 17.3345 69.2422 17.4523 69.3108 17.561C70.72 19.7937 73.4441 19.3103 74.8269 17.4172C75.139 16.9901 75.3161 16.6209 75.3161 16.6209C75.6128 18.4737 77.0536 19.046 77.8789 19.046C78.7386 19.046 79.5544 18.6936 80.2164 17.1274C80.2441 17.817 80.2876 18.3809 80.3564 18.5586C80.3983 18.6674 80.6426 18.8039 80.8203 18.8698C81.6067 19.1614 82.4088 19.0235 82.7055 18.9635C82.9111 18.9219 83.0714 18.757 83.0933 18.3311C83.1509 17.213 83.1155 15.3343 83.4545 13.938C84.0235 11.5948 84.5543 10.6859 84.8061 10.2359C84.947 9.98377 85.106 9.94218 85.1118 10.209C85.1237 10.7489 85.1505 12.3344 85.3709 14.4645C85.5328 16.0312 85.7491 16.9572 85.9153 17.2502C86.3896 18.0883 86.9754 18.128 87.4524 18.128C87.7559 18.128 88.3905 18.0441 88.3337 17.5108C88.306 17.2508 88.3545 15.6443 88.9155 13.3358C89.2819 11.8282 89.8926 10.4661 90.1129 9.96809C90.1942 9.78444 90.2319 9.92921 90.2306 9.95741C90.1842 10.9956 90.0801 14.3914 90.5031 16.2487C91.0764 18.7647 92.7349 19.0462 93.3129 19.0462C94.5468 19.0462 95.5558 18.1077 95.8958 15.6381C95.9777 15.0438 95.8564 14.5849 95.4931 14.5849" fill="#262626"/>
</svg>
